<svg xmlns="http://www.w3.org/2000/svg" xmlns:xlink="http://www.w3.org/1999/xlink" contentStyleType="text/css" data-diagram-type="SEQUENCE" height="574px" preserveAspectRatio="none" style="width:326px;height:574px;background:#FFFFFF;" version="1.1" viewBox="0 0 326 574" width="326px" zoomAndPan="magnify"><defs/><g><rect fill="none" height="246.1637" style="stroke:#000000;stroke-width:1.5;" width="309.103" x="10" y="227.892"/><g><title>User</title><rect fill="#000000" fill-opacity="0.00000" height="406.9877" width="8" x="34.3089" y="84.0679"/><line style="stroke:#181818;stroke-width:0.5;stroke-dasharray:5,5;" x1="38" x2="38" y1="84.0679" y2="491.0556"/></g><g><title>.System</title><rect fill="#000000" fill-opacity="0.00000" height="406.9877" width="8" x="272.4411" y="84.0679"/><line style="stroke:#181818;stroke-width:0.5;stroke-dasharray:5,5;" x1="275.7792" x2="275.7792" y1="84.0679" y2="491.0556"/></g><g class="participant participant-head" data-participant="user"><text fill="#000000" font-family="sans-serif" font-size="14" lengthAdjust="spacing" textLength="30.6179" x="20" y="79.9659">User</text><ellipse cx="38.3089" cy="13.5" fill="#E2E2F0" rx="8" ry="8" style="stroke:#181818;stroke-width:0.5;"/><path d="M38.3089,21.5 L38.3089,48.5 M25.3089,29.5 L51.3089,29.5 M38.3089,48.5 L25.3089,63.5 M38.3089,48.5 L51.3089,63.5" fill="none" style="stroke:#181818;stroke-width:0.5;"/></g><g class="participant participant-tail" data-participant="user"><text fill="#000000" font-family="sans-serif" font-size="14" lengthAdjust="spacing" textLength="30.6179" x="20" y="505.0216">User</text><ellipse cx="38.3089" cy="517.6236" fill="#E2E2F0" rx="8" ry="8" style="stroke:#181818;stroke-width:0.5;"/><path d="M38.3089,525.6236 L38.3089,552.6236 M25.3089,533.6236 L51.3089,533.6236 M38.3089,552.6236 L25.3089,567.6236 M38.3089,552.6236 L51.3089,567.6236" fill="none" style="stroke:#181818;stroke-width:0.5;"/></g><g class="participant participant-head" data-participant="sys"><rect fill="#E2E2F0" height="33.0679" rx="2.5" ry="2.5" style="stroke:#181818;stroke-width:0.5;" width="65.3238" x="243.7792" y="50"/><text fill="#000000" font-family="sans-serif" font-size="14" lengthAdjust="spacing" textLength="51.3238" x="250.7792" y="71.9659">:System</text></g><g class="participant participant-tail" data-participant="sys"><rect fill="#E2E2F0" height="33.0679" rx="2.5" ry="2.5" style="stroke:#181818;stroke-width:0.5;" width="65.3238" x="243.7792" y="490.0556"/><text fill="#000000" font-family="sans-serif" font-size="14" lengthAdjust="spacing" textLength="51.3238" x="250.7792" y="512.0216">:System</text></g><g class="message" data-participant-1="user" data-participant-2="sys"><polygon fill="#181818" points="264.4411,113.7739,274.4411,117.7739,264.4411,121.7739,268.4411,117.7739" style="stroke:#181818;stroke-width:1;"/><line style="stroke:#181818;stroke-width:1;" x1="38.3089" x2="270.4411" y1="117.7739" y2="117.7739"/><text fill="#000000" font-family="sans-serif" font-size="13" font-weight="bold" lengthAdjust="spacing" textLength="7.436" x="45.3089" y="111.9649">1</text><text fill="#000000" font-family="sans-serif" font-size="13" lengthAdjust="spacing" textLength="143.8711" x="56.7449" y="111.9649">The user opens the app</text></g><g class="message" data-participant-1="sys" data-participant-2="user"><polygon fill="#181818" points="49.3089,145.4799,39.3089,149.4799,49.3089,153.4799,45.3089,149.4799" style="stroke:#181818;stroke-width:1;"/><line style="stroke:#181818;stroke-width:1;stroke-dasharray:2,2;" x1="43.3089" x2="275.4411" y1="149.4799" y2="149.4799"/><text fill="#000000" font-family="sans-serif" font-size="13" font-weight="bold" lengthAdjust="spacing" textLength="7.436" x="55.3089" y="143.6709">2</text><text fill="#000000" font-family="sans-serif" font-size="13" lengthAdjust="spacing" textLength="202.6962" x="66.7449" y="143.6709">Display the app's main page view</text></g><g class="message" data-participant-1="sys" data-participant-2="user"><polygon fill="#181818" points="49.3089,177.186,39.3089,181.186,49.3089,185.186,45.3089,181.186" style="stroke:#181818;stroke-width:1;"/><line style="stroke:#181818;stroke-width:1;stroke-dasharray:2,2;" x1="43.3089" x2="275.4411" y1="181.186" y2="181.186"/><text fill="#000000" font-family="sans-serif" font-size="13" font-weight="bold" lengthAdjust="spacing" textLength="7.436" x="55.3089" y="175.377">3</text><text fill="#000000" font-family="sans-serif" font-size="13" lengthAdjust="spacing" textLength="180.2191" x="66.7449" y="175.377">Displays the five navbar icons</text></g><g class="message" data-participant-1="user" data-participant-2="sys"><polygon fill="#181818" points="264.4411,208.892,274.4411,212.892,264.4411,216.892,268.4411,212.892" style="stroke:#181818;stroke-width:1;"/><line style="stroke:#181818;stroke-width:1;" x1="38.3089" x2="270.4411" y1="212.892" y2="212.892"/><text fill="#000000" font-family="sans-serif" font-size="13" font-weight="bold" lengthAdjust="spacing" textLength="7.436" x="45.3089" y="207.083">4</text><text fill="#000000" font-family="sans-serif" font-size="13" lengthAdjust="spacing" textLength="96.0181" x="56.7449" y="207.083">Click on an Icon</text></g><path d="M10,227.892 L72.303,227.892 L72.303,237.598 L62.303,247.598 L10,247.598 L10,227.892" fill="#EEEEEE" style="stroke:#000000;stroke-width:1.5;"/><rect fill="none" height="246.1637" style="stroke:#000000;stroke-width:1.5;" width="309.103" x="10" y="227.892"/><text fill="#000000" font-family="sans-serif" font-size="13" font-weight="bold" lengthAdjust="spacing" textLength="17.303" x="25" y="242.789">alt</text><text fill="#000000" font-family="sans-serif" font-size="11" font-weight="bold" lengthAdjust="spacing" textLength="98.4603" x="87.303" y="241.6509">[MainScreen Icon]</text><g class="message" data-participant-1="sys" data-participant-2="user"><polygon fill="#181818" points="49.3089,267.304,39.3089,271.304,49.3089,275.304,45.3089,271.304" style="stroke:#181818;stroke-width:1;"/><line style="stroke:#181818;stroke-width:1;stroke-dasharray:2,2;" x1="43.3089" x2="275.4411" y1="271.304" y2="271.304"/><text fill="#000000" font-family="sans-serif" font-size="13" font-weight="bold" lengthAdjust="spacing" textLength="7.436" x="55.3089" y="265.495">5</text><text fill="#000000" font-family="sans-serif" font-size="13" lengthAdjust="spacing" textLength="180.9212" x="66.7449" y="265.495">Maintains on the main screen</text></g><line style="stroke:#000000;stroke-width:1;stroke-dasharray:2,2;" x1="10" x2="319.103" y1="280.304" y2="280.304"/><text fill="#000000" font-family="sans-serif" font-size="11" font-weight="bold" lengthAdjust="spacing" textLength="107.0732" x="15" y="292.0629">[ProfileScreen Icon]</text><g class="message" data-participant-1="sys" data-participant-2="user"><polygon fill="#181818" points="49.3089,315.9919,39.3089,319.9919,49.3089,323.9919,45.3089,319.9919" style="stroke:#181818;stroke-width:1;"/><line style="stroke:#181818;stroke-width:1;stroke-dasharray:2,2;" x1="43.3089" x2="275.4411" y1="319.9919" y2="319.9919"/><text fill="#000000" font-family="sans-serif" font-size="13" font-weight="bold" lengthAdjust="spacing" textLength="7.436" x="55.3089" y="314.1829">6</text><text fill="#000000" font-family="sans-serif" font-size="13" lengthAdjust="spacing" textLength="187.2522" x="66.7449" y="314.1829">Send user to the profile screen</text></g><line style="stroke:#000000;stroke-width:1;stroke-dasharray:2,2;" x1="10" x2="319.103" y1="328.9919" y2="328.9919"/><text fill="#000000" font-family="sans-serif" font-size="11" font-weight="bold" lengthAdjust="spacing" textLength="113.5082" x="15" y="340.7508">[CameraScreen Icon]</text><g class="message" data-participant-1="sys" data-participant-2="user"><polygon fill="#181818" points="49.3089,364.6798,39.3089,368.6798,49.3089,372.6798,45.3089,368.6798" style="stroke:#181818;stroke-width:1;"/><line style="stroke:#181818;stroke-width:1;stroke-dasharray:2,2;" x1="43.3089" x2="275.4411" y1="368.6798" y2="368.6798"/><text fill="#000000" font-family="sans-serif" font-size="13" font-weight="bold" lengthAdjust="spacing" textLength="7.436" x="55.3089" y="362.8708">7</text><text fill="#000000" font-family="sans-serif" font-size="13" lengthAdjust="spacing" textLength="193.1932" x="66.7449" y="362.8708">Send user to the camera screen</text></g><line style="stroke:#000000;stroke-width:1;stroke-dasharray:2,2;" x1="10" x2="319.103" y1="377.6798" y2="377.6798"/><text fill="#000000" font-family="sans-serif" font-size="11" font-weight="bold" lengthAdjust="spacing" textLength="94.9733" x="15" y="389.4387">[MapScreen Icon]</text><g class="message" data-participant-1="sys" data-participant-2="user"><polygon fill="#181818" points="49.3089,413.3677,39.3089,417.3677,49.3089,421.3677,45.3089,417.3677" style="stroke:#181818;stroke-width:1;"/><line style="stroke:#181818;stroke-width:1;stroke-dasharray:2,2;" x1="43.3089" x2="275.4411" y1="417.3677" y2="417.3677"/><text fill="#000000" font-family="sans-serif" font-size="13" font-weight="bold" lengthAdjust="spacing" textLength="7.436" x="55.3089" y="411.5587">8</text><text fill="#000000" font-family="sans-serif" font-size="13" lengthAdjust="spacing" textLength="174.9542" x="66.7449" y="411.5587">Send user to the map screen</text></g><line style="stroke:#000000;stroke-width:1;stroke-dasharray:2,2;" x1="10" x2="319.103" y1="426.3677" y2="426.3677"/><text fill="#000000" font-family="sans-serif" font-size="11" font-weight="bold" lengthAdjust="spacing" textLength="116.1482" x="15" y="438.1266">[SettingsScreen Icon]</text><g class="message" data-participant-1="sys" data-participant-2="user"><polygon fill="#181818" points="49.3089,462.0556,39.3089,466.0556,49.3089,470.0556,45.3089,466.0556" style="stroke:#181818;stroke-width:1;"/><line style="stroke:#181818;stroke-width:1;stroke-dasharray:2,2;" x1="43.3089" x2="275.4411" y1="466.0556" y2="466.0556"/><text fill="#000000" font-family="sans-serif" font-size="13" font-weight="bold" lengthAdjust="spacing" textLength="7.436" x="55.3089" y="460.2466">9</text><text fill="#000000" font-family="sans-serif" font-size="13" lengthAdjust="spacing" textLength="196.0662" x="66.7449" y="460.2466">Send user to the settings screen</text></g><!--SRC=[bO-nJiGm38RtF8NLvQPoUuLOZeNX9AJ20_XINo-YSKBi5lNjITC3gH8C7IBP-V__itsugKPfZiSu8EleXmSR_57eSoIsL7SE-uJU61mryEWlb79jDIIeteLI1IWmvi94JEgiYva2LTFEekIBAhCOirYWVbgQ1jvkL38G8h60vXPZN3sFTRsQdftabUOVzI3WqJ54x0acHrz_srVQrKq4ZDC54pWRMBRpJuEp7n0OaE4bo_cYGU6SyQrDHFVFBNzHDJzPSikCieqKlw5125vJkBg1_aUqnDrwjuQ2Y6jYGpcXfuGx8BO4DempnXq0Zt6JRadLSIyx47AF_7AuCzy0]--></g></svg>