<svg xmlns="http://www.w3.org/2000/svg" xmlns:xlink="http://www.w3.org/1999/xlink" contentStyleType="text/css" data-diagram-type="SEQUENCE" height="467px" preserveAspectRatio="none" style="width:777px;height:467px;background:#FFFFFF;" version="1.1" viewBox="0 0 777 467" width="777px" zoomAndPan="magnify"><defs/><g><g><title>User</title><rect fill="#000000" fill-opacity="0.00000" height="299.6481" width="8" x="19.3089" y="84.0679"/><line style="stroke:#181818;stroke-width:0.5;stroke-dasharray:5,5;" x1="23" x2="23" y1="84.0679" y2="383.716"/></g><g><title>.Service</title><rect fill="#000000" fill-opacity="0.00000" height="299.6481" width="8" x="293.7502" y="84.0679"/><line style="stroke:#181818;stroke-width:0.5;stroke-dasharray:5,5;" x1="297.5223" x2="297.5223" y1="84.0679" y2="383.716"/></g><g><title>.API</title><rect fill="#000000" fill-opacity="0.00000" height="299.6481" width="8" x="747.9816" y="84.0679"/><line style="stroke:#181818;stroke-width:0.5;stroke-dasharray:5,5;" x1="751.0246" x2="751.0246" y1="84.0679" y2="383.716"/></g><g class="participant participant-head" data-participant="user"><text fill="#000000" font-family="sans-serif" font-size="14" lengthAdjust="spacing" textLength="30.6179" x="5" y="79.9659">User</text><ellipse cx="23.3089" cy="13.5" fill="#E2E2F0" rx="8" ry="8" style="stroke:#181818;stroke-width:0.5;"/><path d="M23.3089,21.5 L23.3089,48.5 M10.3089,29.5 L36.3089,29.5 M23.3089,48.5 L10.3089,63.5 M23.3089,48.5 L36.3089,63.5" fill="none" style="stroke:#181818;stroke-width:0.5;"/></g><g class="participant participant-tail" data-participant="user"><text fill="#000000" font-family="sans-serif" font-size="14" lengthAdjust="spacing" textLength="30.6179" x="5" y="397.682">User</text><ellipse cx="23.3089" cy="410.284" fill="#E2E2F0" rx="8" ry="8" style="stroke:#181818;stroke-width:0.5;"/><path d="M23.3089,418.284 L23.3089,445.284 M10.3089,426.284 L36.3089,426.284 M23.3089,445.284 L10.3089,460.284 M23.3089,445.284 L36.3089,460.284" fill="none" style="stroke:#181818;stroke-width:0.5;"/></g><g class="participant participant-head" data-participant="service"><rect fill="#E2E2F0" height="33.0679" rx="2.5" ry="2.5" style="stroke:#181818;stroke-width:0.5;" width="64.4558" x="265.5223" y="50"/><text fill="#000000" font-family="sans-serif" font-size="14" lengthAdjust="spacing" textLength="50.4558" x="272.5223" y="71.9659">:Service</text></g><g class="participant participant-tail" data-participant="service"><rect fill="#E2E2F0" height="33.0679" rx="2.5" ry="2.5" style="stroke:#181818;stroke-width:0.5;" width="64.4558" x="265.5223" y="382.716"/><text fill="#000000" font-family="sans-serif" font-size="14" lengthAdjust="spacing" textLength="50.4558" x="272.5223" y="404.682">:Service</text></g><g class="participant participant-head" data-participant="api"><rect fill="#E2E2F0" height="33.0679" rx="2.5" ry="2.5" style="stroke:#181818;stroke-width:0.5;" width="39.9139" x="732.0246" y="50"/><text fill="#000000" font-family="sans-serif" font-size="14" lengthAdjust="spacing" textLength="25.9139" x="739.0246" y="71.9659">:API</text></g><g class="participant participant-tail" data-participant="api"><rect fill="#E2E2F0" height="33.0679" rx="2.5" ry="2.5" style="stroke:#181818;stroke-width:0.5;" width="39.9139" x="732.0246" y="382.716"/><text fill="#000000" font-family="sans-serif" font-size="14" lengthAdjust="spacing" textLength="25.9139" x="739.0246" y="404.682">:API</text></g><g class="message" data-participant-1="user" data-participant-2="service"><polygon fill="#181818" points="285.7502,113.7739,295.7502,117.7739,285.7502,121.7739,289.7502,117.7739" style="stroke:#181818;stroke-width:1;"/><line style="stroke:#181818;stroke-width:1;" x1="23.3089" x2="291.7502" y1="117.7739" y2="117.7739"/><text fill="#000000" font-family="sans-serif" font-size="13" font-weight="bold" lengthAdjust="spacing" textLength="7.436" x="30.3089" y="111.9649">1</text><text fill="#000000" font-family="sans-serif" font-size="13" lengthAdjust="spacing" textLength="151.6322" x="41.7449" y="111.9649">Click on the settings icon</text></g><g class="message" data-participant-1="service" data-participant-2="user"><polygon fill="#181818" points="34.3089,145.4799,24.3089,149.4799,34.3089,153.4799,30.3089,149.4799" style="stroke:#181818;stroke-width:1;"/><line style="stroke:#181818;stroke-width:1;stroke-dasharray:2,2;" x1="28.3089" x2="296.7502" y1="149.4799" y2="149.4799"/><text fill="#000000" font-family="sans-serif" font-size="13" font-weight="bold" lengthAdjust="spacing" textLength="7.436" x="40.3089" y="143.6709">2</text><text fill="#000000" font-family="sans-serif" font-size="13" lengthAdjust="spacing" textLength="225.0822" x="51.7449" y="143.6709">loadFragment(new SettingsScreen());</text></g><g class="message" data-participant-1="user" data-participant-2="service"><polygon fill="#181818" points="285.7502,177.186,295.7502,181.186,285.7502,185.186,289.7502,181.186" style="stroke:#181818;stroke-width:1;"/><line style="stroke:#181818;stroke-width:1;" x1="23.3089" x2="291.7502" y1="181.186" y2="181.186"/><text fill="#000000" font-family="sans-serif" font-size="13" font-weight="bold" lengthAdjust="spacing" textLength="7.436" x="30.3089" y="175.377">3</text><text fill="#000000" font-family="sans-serif" font-size="13" lengthAdjust="spacing" textLength="239.0052" x="41.7449" y="175.377">Click on the "Force Saving Data" button</text></g><g class="message" data-participant-1="service" data-participant-2="service"><line style="stroke:#181818;stroke-width:1;stroke-dasharray:2,2;" x1="255.7502" x2="296.7502" y1="212.892" y2="212.892"/><line style="stroke:#181818;stroke-width:1;stroke-dasharray:2,2;" x1="255.7502" x2="255.7502" y1="212.892" y2="225.892"/><line style="stroke:#181818;stroke-width:1;stroke-dasharray:2,2;" x1="255.7502" x2="295.7502" y1="225.892" y2="225.892"/><polygon fill="#181818" points="285.7502,221.892,295.7502,225.892,285.7502,229.892,289.7502,225.892" style="stroke:#181818;stroke-width:1;"/><text fill="#000000" font-family="sans-serif" font-size="13" font-weight="bold" lengthAdjust="spacing" textLength="7.436" x="164.7191" y="207.083">4</text><text fill="#000000" font-family="sans-serif" font-size="13" lengthAdjust="spacing" textLength="114.5951" x="176.1551" y="207.083">clickAction(View v);</text></g><g class="message" data-participant-1="service" data-participant-2="api"><polygon fill="#181818" points="739.9816,253.598,749.9816,257.598,739.9816,261.598,743.9816,257.598" style="stroke:#181818;stroke-width:1;"/><line style="stroke:#181818;stroke-width:1;" x1="297.7502" x2="745.9816" y1="257.598" y2="257.598"/><text fill="#000000" font-family="sans-serif" font-size="13" font-weight="bold" lengthAdjust="spacing" textLength="7.436" x="304.7502" y="251.789">5</text><text fill="#000000" font-family="sans-serif" font-size="13" lengthAdjust="spacing" textLength="418.7954" x="316.1862" y="251.789">WorkManager.getInstance(requireContext()).enqueue(upload_work);</text></g><g class="message" data-participant-1="api" data-participant-2="api"><line style="stroke:#181818;stroke-width:1;stroke-dasharray:2,2;" x1="709.9816" x2="750.9816" y1="289.304" y2="289.304"/><line style="stroke:#181818;stroke-width:1;stroke-dasharray:2,2;" x1="709.9816" x2="709.9816" y1="289.304" y2="302.304"/><line style="stroke:#181818;stroke-width:1;stroke-dasharray:2,2;" x1="709.9816" x2="749.9816" y1="302.304" y2="302.304"/><polygon fill="#181818" points="739.9816,298.304,749.9816,302.304,739.9816,306.304,743.9816,302.304" style="stroke:#181818;stroke-width:1;"/><text fill="#000000" font-family="sans-serif" font-size="13" font-weight="bold" lengthAdjust="spacing" textLength="7.436" x="674.1355" y="283.495">6</text><text fill="#000000" font-family="sans-serif" font-size="13" lengthAdjust="spacing" textLength="59.4101" x="685.5715" y="283.495">doWork();</text></g><g class="message" data-participant-1="api" data-participant-2="service"><polygon fill="#181818" points="308.7502,330.01,298.7502,334.01,308.7502,338.01,304.7502,334.01" style="stroke:#181818;stroke-width:1;"/><line style="stroke:#181818;stroke-width:1;stroke-dasharray:2,2;" x1="302.7502" x2="750.9816" y1="334.01" y2="334.01"/><text fill="#000000" font-family="sans-serif" font-size="13" font-weight="bold" lengthAdjust="spacing" textLength="7.436" x="314.7502" y="328.201">7</text><text fill="#000000" font-family="sans-serif" font-size="13" lengthAdjust="spacing" textLength="66.7681" x="326.1862" y="328.201">(In)success</text></g><g class="message" data-participant-1="service" data-participant-2="user"><polygon fill="#181818" points="34.3089,361.716,24.3089,365.716,34.3089,369.716,30.3089,365.716" style="stroke:#181818;stroke-width:1;"/><line style="stroke:#181818;stroke-width:1;stroke-dasharray:2,2;" x1="28.3089" x2="296.7502" y1="365.716" y2="365.716"/><text fill="#000000" font-family="sans-serif" font-size="13" font-weight="bold" lengthAdjust="spacing" textLength="7.436" x="40.3089" y="359.907">8</text><text fill="#000000" font-family="sans-serif" font-size="13" lengthAdjust="spacing" textLength="66.7681" x="51.7449" y="359.907">(In)success</text></g><!--SRC=[XL1DIyD04BtdLmovk3aalKSHIgNGWo04zIZJxP0kJMRZxcpgptUIjbf5y3Ri-zhtRlOYGwmNYw53bjHtbVNz8j9x8hPKxXos0ViimoIUKx-beBSL7o1_ZXHom0X9Zsp08CwwGLqWhniAexCqm_5q_s8idpOpYeFBiia1oliBjOPLv-m1F8FiILz57BSHdFLyujwLvJUvyxXR1snxOZ5CHsZEWiO68ZP5SVjVHBxsmH8qEAeE7b0mXsqIxPoT1JyZxIHUMd6UpOlJo54pBanDqLOrlFfmU4J6baBLacmu2kge9kYwBj3Aiz27wFSgOjqxaKd3rENjg4BrKvCvTJRR-SdENCLyGMR3HKpMKen_h7EDVW80]--></g></svg>