<svg xmlns="http://www.w3.org/2000/svg" xmlns:xlink="http://www.w3.org/1999/xlink" contentStyleType="text/css" data-diagram-type="SEQUENCE" height="314px" preserveAspectRatio="none" style="width:481px;height:314px;background:#FFFFFF;" version="1.1" viewBox="0 0 481 314" width="481px" zoomAndPan="magnify"><defs/><g><g><title>User</title><rect fill="#000000" fill-opacity="0.00000" height="146.8241" width="8" x="19.3089" y="84.0679"/><line style="stroke:#181818;stroke-width:0.5;stroke-dasharray:5,5;" x1="23" x2="23" y1="84.0679" y2="230.892"/></g><g><title>.Service</title><rect fill="#000000" fill-opacity="0.00000" height="146.8241" width="8" x="439.1293" y="84.0679"/><line style="stroke:#181818;stroke-width:0.5;stroke-dasharray:5,5;" x1="442.9015" x2="442.9015" y1="84.0679" y2="230.892"/></g><g class="participant participant-head" data-participant="user"><text fill="#000000" font-family="sans-serif" font-size="14" lengthAdjust="spacing" textLength="30.6179" x="5" y="79.9659">User</text><ellipse cx="23.3089" cy="13.5" fill="#E2E2F0" rx="8" ry="8" style="stroke:#181818;stroke-width:0.5;"/><path d="M23.3089,21.5 L23.3089,48.5 M10.3089,29.5 L36.3089,29.5 M23.3089,48.5 L10.3089,63.5 M23.3089,48.5 L36.3089,63.5" fill="none" style="stroke:#181818;stroke-width:0.5;"/></g><g class="participant participant-tail" data-participant="user"><text fill="#000000" font-family="sans-serif" font-size="14" lengthAdjust="spacing" textLength="30.6179" x="5" y="244.8579">User</text><ellipse cx="23.3089" cy="257.4599" fill="#E2E2F0" rx="8" ry="8" style="stroke:#181818;stroke-width:0.5;"/><path d="M23.3089,265.4599 L23.3089,292.4599 M10.3089,273.4599 L36.3089,273.4599 M23.3089,292.4599 L10.3089,307.4599 M23.3089,292.4599 L36.3089,307.4599" fill="none" style="stroke:#181818;stroke-width:0.5;"/></g><g class="participant participant-head" data-participant="service"><rect fill="#E2E2F0" height="33.0679" rx="2.5" ry="2.5" style="stroke:#181818;stroke-width:0.5;" width="64.4558" x="410.9015" y="50"/><text fill="#000000" font-family="sans-serif" font-size="14" lengthAdjust="spacing" textLength="50.4558" x="417.9015" y="71.9659">:Service</text></g><g class="participant participant-tail" data-participant="service"><rect fill="#E2E2F0" height="33.0679" rx="2.5" ry="2.5" style="stroke:#181818;stroke-width:0.5;" width="64.4558" x="410.9015" y="229.892"/><text fill="#000000" font-family="sans-serif" font-size="14" lengthAdjust="spacing" textLength="50.4558" x="417.9015" y="251.8579">:Service</text></g><g class="message" data-participant-1="user" data-participant-2="service"><polygon fill="#181818" points="431.1293,113.7739,441.1293,117.7739,431.1293,121.7739,435.1293,117.7739" style="stroke:#181818;stroke-width:1;"/><line style="stroke:#181818;stroke-width:1;" x1="23.3089" x2="437.1293" y1="117.7739" y2="117.7739"/><text fill="#000000" font-family="sans-serif" font-size="13" font-weight="bold" lengthAdjust="spacing" textLength="7.436" x="30.3089" y="111.9649">1</text><text fill="#000000" font-family="sans-serif" font-size="13" lengthAdjust="spacing" textLength="194.4412" x="41.7449" y="111.9649">The user clicks the share button</text></g><g class="message" data-participant-1="service" data-participant-2="user"><polygon fill="#181818" points="34.3089,145.4799,24.3089,149.4799,34.3089,153.4799,30.3089,149.4799" style="stroke:#181818;stroke-width:1;"/><line style="stroke:#181818;stroke-width:1;stroke-dasharray:2,2;" x1="28.3089" x2="442.1293" y1="149.4799" y2="149.4799"/><text fill="#000000" font-family="sans-serif" font-size="13" font-weight="bold" lengthAdjust="spacing" textLength="7.436" x="40.3089" y="143.6709">2</text><text fill="#000000" font-family="sans-serif" font-size="13" lengthAdjust="spacing" textLength="290.9403" x="51.7449" y="143.6709">share_button_layout.setOnClickListener(view v);</text></g><g class="message" data-participant-1="service" data-participant-2="user"><polygon fill="#181818" points="34.3089,177.186,24.3089,181.186,34.3089,185.186,30.3089,181.186" style="stroke:#181818;stroke-width:1;"/><line style="stroke:#181818;stroke-width:1;stroke-dasharray:2,2;" x1="28.3089" x2="442.1293" y1="181.186" y2="181.186"/><text fill="#000000" font-family="sans-serif" font-size="13" font-weight="bold" lengthAdjust="spacing" textLength="7.436" x="40.3089" y="175.377">3</text><text fill="#000000" font-family="sans-serif" font-size="13" lengthAdjust="spacing" textLength="208.3772" x="51.7449" y="175.377">Intent share_intent = new Intent();</text></g><g class="message" data-participant-1="service" data-participant-2="user"><polygon fill="#181818" points="34.3089,208.892,24.3089,212.892,34.3089,216.892,30.3089,212.892" style="stroke:#181818;stroke-width:1;"/><line style="stroke:#181818;stroke-width:1;stroke-dasharray:2,2;" x1="28.3089" x2="442.1293" y1="212.892" y2="212.892"/><text fill="#000000" font-family="sans-serif" font-size="13" font-weight="bold" lengthAdjust="spacing" textLength="7.436" x="40.3089" y="207.083">4</text><text fill="#000000" font-family="sans-serif" font-size="13" lengthAdjust="spacing" textLength="384.3844" x="51.7449" y="207.083">startActivity(Intent.createChooser(share_intent, "Share Book"));</text></g><!--SRC=[RO-zRiCm38HtFGMXfGvGsxlx0xIP2XJea7GE59MeYTYIAr8kylPXh0JjaEt8k_i8tlKY4tTjEmqkI1w7niUnPVp963pMN-I-ankDSLbYoECUaselCO7zP4mM74DMOIQNX3nDIW7RRJ3Dv76nkMXZpZcedw-B3hOzBcNm0_a3W-ZClKi8-onwhpGUw_glijYxOky6TunP6aRv2EipufrOC62gPi9Vc5SFDmXlGIDo0L4PdY1elZZLpHQB_lVYXMQIOrMIZK_e1DTzZ9gh_XFlmMwMHrvZFDYL8iq9]--></g></svg>