<svg xmlns="http://www.w3.org/2000/svg" xmlns:xlink="http://www.w3.org/1999/xlink" contentStyleType="text/css" data-diagram-type="SEQUENCE" height="314px" preserveAspectRatio="none" style="width:307px;height:314px;background:#FFFFFF;" version="1.1" viewBox="0 0 307 314" width="307px" zoomAndPan="magnify"><defs/><g><g><title>User</title><rect fill="#000000" fill-opacity="0.00000" height="146.8241" width="8" x="19.3089" y="84.0679"/><line style="stroke:#181818;stroke-width:0.5;stroke-dasharray:5,5;" x1="23" x2="23" y1="84.0679" y2="230.892"/></g><g><title>.System</title><rect fill="#000000" fill-opacity="0.00000" height="146.8241" width="8" x="264.6951" y="84.0679"/><line style="stroke:#181818;stroke-width:0.5;stroke-dasharray:5,5;" x1="268.0332" x2="268.0332" y1="84.0679" y2="230.892"/></g><g class="participant participant-head" data-participant="user"><text fill="#000000" font-family="sans-serif" font-size="14" lengthAdjust="spacing" textLength="30.6179" x="5" y="79.9659">User</text><ellipse cx="23.3089" cy="13.5" fill="#E2E2F0" rx="8" ry="8" style="stroke:#181818;stroke-width:0.5;"/><path d="M23.3089,21.5 L23.3089,48.5 M10.3089,29.5 L36.3089,29.5 M23.3089,48.5 L10.3089,63.5 M23.3089,48.5 L36.3089,63.5" fill="none" style="stroke:#181818;stroke-width:0.5;"/></g><g class="participant participant-tail" data-participant="user"><text fill="#000000" font-family="sans-serif" font-size="14" lengthAdjust="spacing" textLength="30.6179" x="5" y="244.8579">User</text><ellipse cx="23.3089" cy="257.4599" fill="#E2E2F0" rx="8" ry="8" style="stroke:#181818;stroke-width:0.5;"/><path d="M23.3089,265.4599 L23.3089,292.4599 M10.3089,273.4599 L36.3089,273.4599 M23.3089,292.4599 L10.3089,307.4599 M23.3089,292.4599 L36.3089,307.4599" fill="none" style="stroke:#181818;stroke-width:0.5;"/></g><g class="participant participant-head" data-participant="sys"><rect fill="#E2E2F0" height="33.0679" rx="2.5" ry="2.5" style="stroke:#181818;stroke-width:0.5;" width="65.3238" x="236.0332" y="50"/><text fill="#000000" font-family="sans-serif" font-size="14" lengthAdjust="spacing" textLength="51.3238" x="243.0332" y="71.9659">:System</text></g><g class="participant participant-tail" data-participant="sys"><rect fill="#E2E2F0" height="33.0679" rx="2.5" ry="2.5" style="stroke:#181818;stroke-width:0.5;" width="65.3238" x="236.0332" y="229.892"/><text fill="#000000" font-family="sans-serif" font-size="14" lengthAdjust="spacing" textLength="51.3238" x="243.0332" y="251.8579">:System</text></g><g class="message" data-participant-1="user" data-participant-2="sys"><polygon fill="#181818" points="256.6951,113.7739,266.6951,117.7739,256.6951,121.7739,260.6951,117.7739" style="stroke:#181818;stroke-width:1;"/><line style="stroke:#181818;stroke-width:1;" x1="23.3089" x2="262.6951" y1="117.7739" y2="117.7739"/><text fill="#000000" font-family="sans-serif" font-size="13" font-weight="bold" lengthAdjust="spacing" textLength="7.436" x="30.3089" y="111.9649">1</text><text fill="#000000" font-family="sans-serif" font-size="13" lengthAdjust="spacing" textLength="209.9502" x="41.7449" y="111.9649">Click on the add manual book icon</text></g><g class="message" data-participant-1="sys" data-participant-2="user"><polygon fill="#181818" points="34.3089,145.4799,24.3089,149.4799,34.3089,153.4799,30.3089,149.4799" style="stroke:#181818;stroke-width:1;"/><line style="stroke:#181818;stroke-width:1;stroke-dasharray:2,2;" x1="28.3089" x2="267.6951" y1="149.4799" y2="149.4799"/><text fill="#000000" font-family="sans-serif" font-size="13" font-weight="bold" lengthAdjust="spacing" textLength="7.436" x="40.3089" y="143.6709">2</text><text fill="#000000" font-family="sans-serif" font-size="13" lengthAdjust="spacing" textLength="187.4212" x="51.7449" y="143.6709">Show add manual book screen</text></g><g class="message" data-participant-1="user" data-participant-2="sys"><polygon fill="#181818" points="256.6951,177.186,266.6951,181.186,256.6951,185.186,260.6951,181.186" style="stroke:#181818;stroke-width:1;"/><line style="stroke:#181818;stroke-width:1;" x1="23.3089" x2="262.6951" y1="181.186" y2="181.186"/><text fill="#000000" font-family="sans-serif" font-size="13" font-weight="bold" lengthAdjust="spacing" textLength="7.436" x="30.3089" y="175.377">3</text><text fill="#000000" font-family="sans-serif" font-size="13" lengthAdjust="spacing" textLength="157.3912" x="41.7449" y="175.377">Click on the cancel button</text></g><g class="message" data-participant-1="sys" data-participant-2="user"><polygon fill="#181818" points="34.3089,208.892,24.3089,212.892,34.3089,216.892,30.3089,212.892" style="stroke:#181818;stroke-width:1;"/><line style="stroke:#181818;stroke-width:1;stroke-dasharray:2,2;" x1="28.3089" x2="267.6951" y1="212.892" y2="212.892"/><text fill="#000000" font-family="sans-serif" font-size="13" font-weight="bold" lengthAdjust="spacing" textLength="7.436" x="40.3089" y="207.083">4</text><text fill="#000000" font-family="sans-serif" font-size="13" lengthAdjust="spacing" textLength="206.5182" x="51.7449" y="207.083">Sends user to the previous screen</text></g><!--SRC=[VOyn3eCm34NtdC9YwKJPKTMbHq0zW0bMYI1n6Zkjk7q3g0kLkdthFptvdqRLA6tJn1c3PZ-VBVj6w9afMAe7Xu-4tXZCoY7xdj8XM-K4rLqeLO02kGGJCQcpBXOZL6stY9BVMbd4c1M1-heUBTncPoVW03eIu320nv1nXfvv0cSvxFYbhdU-6_dzmubDHE6VsM9PK-YiUb12SL8Oziz1USDZefVZB5_p1m00]--></g></svg>