<svg xmlns="http://www.w3.org/2000/svg" xmlns:xlink="http://www.w3.org/1999/xlink" contentStyleType="text/css" data-diagram-type="SEQUENCE" height="359px" preserveAspectRatio="none" style="width:399px;height:359px;background:#FFFFFF;" version="1.1" viewBox="0 0 399 359" width="399px" zoomAndPan="magnify"><defs/><g><g><title>User</title><rect fill="#000000" fill-opacity="0.00000" height="191.5301" width="8" x="19.3089" y="84.0679"/><line style="stroke:#181818;stroke-width:0.5;stroke-dasharray:5,5;" x1="23" x2="23" y1="84.0679" y2="275.598"/></g><g><title>.Service</title><rect fill="#000000" fill-opacity="0.00000" height="191.5301" width="8" x="357.4212" y="84.0679"/><line style="stroke:#181818;stroke-width:0.5;stroke-dasharray:5,5;" x1="361.1933" x2="361.1933" y1="84.0679" y2="275.598"/></g><g class="participant participant-head" data-participant="user"><text fill="#000000" font-family="sans-serif" font-size="14" lengthAdjust="spacing" textLength="30.6179" x="5" y="79.9659">User</text><ellipse cx="23.3089" cy="13.5" fill="#E2E2F0" rx="8" ry="8" style="stroke:#181818;stroke-width:0.5;"/><path d="M23.3089,21.5 L23.3089,48.5 M10.3089,29.5 L36.3089,29.5 M23.3089,48.5 L10.3089,63.5 M23.3089,48.5 L36.3089,63.5" fill="none" style="stroke:#181818;stroke-width:0.5;"/></g><g class="participant participant-tail" data-participant="user"><text fill="#000000" font-family="sans-serif" font-size="14" lengthAdjust="spacing" textLength="30.6179" x="5" y="289.5639">User</text><ellipse cx="23.3089" cy="302.1659" fill="#E2E2F0" rx="8" ry="8" style="stroke:#181818;stroke-width:0.5;"/><path d="M23.3089,310.1659 L23.3089,337.1659 M10.3089,318.1659 L36.3089,318.1659 M23.3089,337.1659 L10.3089,352.1659 M23.3089,337.1659 L36.3089,352.1659" fill="none" style="stroke:#181818;stroke-width:0.5;"/></g><g class="participant participant-head" data-participant="service"><rect fill="#E2E2F0" height="33.0679" rx="2.5" ry="2.5" style="stroke:#181818;stroke-width:0.5;" width="64.4558" x="329.1933" y="50"/><text fill="#000000" font-family="sans-serif" font-size="14" lengthAdjust="spacing" textLength="50.4558" x="336.1933" y="71.9659">:Service</text></g><g class="participant participant-tail" data-participant="service"><rect fill="#E2E2F0" height="33.0679" rx="2.5" ry="2.5" style="stroke:#181818;stroke-width:0.5;" width="64.4558" x="329.1933" y="274.598"/><text fill="#000000" font-family="sans-serif" font-size="14" lengthAdjust="spacing" textLength="50.4558" x="336.1933" y="296.5639">:Service</text></g><g class="message" data-participant-1="user" data-participant-2="service"><polygon fill="#181818" points="349.4212,113.7739,359.4212,117.7739,349.4212,121.7739,353.4212,117.7739" style="stroke:#181818;stroke-width:1;"/><line style="stroke:#181818;stroke-width:1;" x1="23.3089" x2="355.4212" y1="117.7739" y2="117.7739"/><text fill="#000000" font-family="sans-serif" font-size="13" font-weight="bold" lengthAdjust="spacing" textLength="7.436" x="30.3089" y="111.9649">1</text><text fill="#000000" font-family="sans-serif" font-size="13" lengthAdjust="spacing" textLength="176.8132" x="41.7449" y="111.9649">Click on the profile page icon</text></g><g class="message" data-participant-1="service" data-participant-2="user"><polygon fill="#181818" points="34.3089,145.4799,24.3089,149.4799,34.3089,153.4799,30.3089,149.4799" style="stroke:#181818;stroke-width:1;"/><line style="stroke:#181818;stroke-width:1;stroke-dasharray:2,2;" x1="28.3089" x2="360.4212" y1="149.4799" y2="149.4799"/><text fill="#000000" font-family="sans-serif" font-size="13" font-weight="bold" lengthAdjust="spacing" textLength="7.436" x="40.3089" y="143.6709">2</text><text fill="#000000" font-family="sans-serif" font-size="13" lengthAdjust="spacing" textLength="215.2282" x="51.7449" y="143.6709">loadFragment(new ProfileScreen());</text></g><g class="message" data-participant-1="service" data-participant-2="service"><line style="stroke:#181818;stroke-width:1;stroke-dasharray:2,2;" x1="319.4212" x2="360.4212" y1="181.186" y2="181.186"/><line style="stroke:#181818;stroke-width:1;stroke-dasharray:2,2;" x1="319.4212" x2="319.4212" y1="181.186" y2="194.186"/><line style="stroke:#181818;stroke-width:1;stroke-dasharray:2,2;" x1="319.4212" x2="359.4212" y1="194.186" y2="194.186"/><polygon fill="#181818" points="349.4212,190.186,359.4212,194.186,349.4212,198.186,353.4212,194.186" style="stroke:#181818;stroke-width:1;"/><text fill="#000000" font-family="sans-serif" font-size="13" font-weight="bold" lengthAdjust="spacing" textLength="7.436" x="30.3089" y="175.377">3</text><text fill="#000000" font-family="sans-serif" font-size="13" lengthAdjust="spacing" textLength="312.6763" x="41.7449" y="175.377">reading_activity_section.setOnClickListener(View v);</text></g><g class="message" data-participant-1="user" data-participant-2="service"><polygon fill="#181818" points="349.4212,221.892,359.4212,225.892,349.4212,229.892,353.4212,225.892" style="stroke:#181818;stroke-width:1;"/><line style="stroke:#181818;stroke-width:1;" x1="23.3089" x2="355.4212" y1="225.892" y2="225.892"/><text fill="#000000" font-family="sans-serif" font-size="13" font-weight="bold" lengthAdjust="spacing" textLength="7.436" x="30.3089" y="220.083">4</text><text fill="#000000" font-family="sans-serif" font-size="13" lengthAdjust="spacing" textLength="225.9142" x="41.7449" y="220.083">Click on the "Reviews Activity" button</text></g><g class="message" data-participant-1="service" data-participant-2="user"><polygon fill="#181818" points="34.3089,253.598,24.3089,257.598,34.3089,261.598,30.3089,257.598" style="stroke:#181818;stroke-width:1;"/><line style="stroke:#181818;stroke-width:1;stroke-dasharray:2,2;" x1="28.3089" x2="360.4212" y1="257.598" y2="257.598"/><text fill="#000000" font-family="sans-serif" font-size="13" font-weight="bold" lengthAdjust="spacing" textLength="7.436" x="40.3089" y="251.789">5</text><text fill="#000000" font-family="sans-serif" font-size="13" lengthAdjust="spacing" textLength="168.4931" x="51.7449" y="251.789">new ReviewActivityScreen();</text></g><!--SRC=[XOv1ImCn48Nl-HL3BjqUjdlVYY229y5YqMj9i-DsS3DP9vCL_xrfjui8WgSyCjzxVAkJwfZQfXa7nvh3iF4nD0a_ChB7kYFNYml6kAoHSpYYbEmr2jYNX6B19SWbcD69agUnh81jzoWJURoSqvoDENDGtouVBTmFvDyXCkW9OPJuHaDvNOz0FlBCtzJrJs68hdiGrmTahHW_OJUNzbuGkLglj-RA_ku9kewuFnHpcaY_3WbBYhn9g4zyqNYafCWerIkLtQai_UDhdt4gQ8AxwwY5OrRzq_kiEkCBl1XlpJS0]--></g></svg>