<svg xmlns="http://www.w3.org/2000/svg" xmlns:xlink="http://www.w3.org/1999/xlink" contentStyleType="text/css" data-diagram-type="SEQUENCE" height="467px" preserveAspectRatio="none" style="width:771px;height:467px;background:#FFFFFF;" version="1.1" viewBox="0 0 771 467" width="771px" zoomAndPan="magnify"><defs/><g><g><title>User</title><rect fill="#000000" fill-opacity="0.00000" height="299.6481" width="8" x="19.3089" y="84.0679"/><line style="stroke:#181818;stroke-width:0.5;stroke-dasharray:5,5;" x1="23" x2="23" y1="84.0679" y2="383.716"/></g><g><title>.Service</title><rect fill="#000000" fill-opacity="0.00000" height="299.6481" width="8" x="343.3842" y="84.0679"/><line style="stroke:#181818;stroke-width:0.5;stroke-dasharray:5,5;" x1="347.1563" x2="347.1563" y1="84.0679" y2="383.716"/></g><g><title>.Adapter</title><rect fill="#000000" fill-opacity="0.00000" height="299.6481" width="8" x="726.3074" y="84.0679"/><line style="stroke:#181818;stroke-width:0.5;stroke-dasharray:5,5;" x1="730.0555" x2="730.0555" y1="84.0679" y2="383.716"/></g><g class="participant participant-head" data-participant="user"><text fill="#000000" font-family="sans-serif" font-size="14" lengthAdjust="spacing" textLength="30.6179" x="5" y="79.9659">User</text><ellipse cx="23.3089" cy="13.5" fill="#E2E2F0" rx="8" ry="8" style="stroke:#181818;stroke-width:0.5;"/><path d="M23.3089,21.5 L23.3089,48.5 M10.3089,29.5 L36.3089,29.5 M23.3089,48.5 L10.3089,63.5 M23.3089,48.5 L36.3089,63.5" fill="none" style="stroke:#181818;stroke-width:0.5;"/></g><g class="participant participant-tail" data-participant="user"><text fill="#000000" font-family="sans-serif" font-size="14" lengthAdjust="spacing" textLength="30.6179" x="5" y="397.682">User</text><ellipse cx="23.3089" cy="410.284" fill="#E2E2F0" rx="8" ry="8" style="stroke:#181818;stroke-width:0.5;"/><path d="M23.3089,418.284 L23.3089,445.284 M10.3089,426.284 L36.3089,426.284 M23.3089,445.284 L10.3089,460.284 M23.3089,445.284 L36.3089,460.284" fill="none" style="stroke:#181818;stroke-width:0.5;"/></g><g class="participant participant-head" data-participant="service"><rect fill="#E2E2F0" height="33.0679" rx="2.5" ry="2.5" style="stroke:#181818;stroke-width:0.5;" width="64.4558" x="315.1563" y="50"/><text fill="#000000" font-family="sans-serif" font-size="14" lengthAdjust="spacing" textLength="50.4558" x="322.1563" y="71.9659">:Service</text></g><g class="participant participant-tail" data-participant="service"><rect fill="#E2E2F0" height="33.0679" rx="2.5" ry="2.5" style="stroke:#181818;stroke-width:0.5;" width="64.4558" x="315.1563" y="382.716"/><text fill="#000000" font-family="sans-serif" font-size="14" lengthAdjust="spacing" textLength="50.4558" x="322.1563" y="404.682">:Service</text></g><g class="participant participant-head" data-participant="adapter"><rect fill="#E2E2F0" height="33.0679" rx="2.5" ry="2.5" style="stroke:#181818;stroke-width:0.5;" width="70.5038" x="695.0555" y="50"/><text fill="#000000" font-family="sans-serif" font-size="14" lengthAdjust="spacing" textLength="56.5038" x="702.0555" y="71.9659">:Adapter</text></g><g class="participant participant-tail" data-participant="adapter"><rect fill="#E2E2F0" height="33.0679" rx="2.5" ry="2.5" style="stroke:#181818;stroke-width:0.5;" width="70.5038" x="695.0555" y="382.716"/><text fill="#000000" font-family="sans-serif" font-size="14" lengthAdjust="spacing" textLength="56.5038" x="702.0555" y="404.682">:Adapter</text></g><g class="message" data-participant-1="user" data-participant-2="service"><polygon fill="#181818" points="335.3842,113.7739,345.3842,117.7739,335.3842,121.7739,339.3842,117.7739" style="stroke:#181818;stroke-width:1;"/><line style="stroke:#181818;stroke-width:1;" x1="23.3089" x2="341.3842" y1="117.7739" y2="117.7739"/><text fill="#000000" font-family="sans-serif" font-size="13" font-weight="bold" lengthAdjust="spacing" textLength="7.436" x="30.3089" y="111.9649">1</text><text fill="#000000" font-family="sans-serif" font-size="13" lengthAdjust="spacing" textLength="143.8711" x="41.7449" y="111.9649">The user opens the app</text></g><g class="message" data-participant-1="service" data-participant-2="user"><polygon fill="#181818" points="34.3089,145.4799,24.3089,149.4799,34.3089,153.4799,30.3089,149.4799" style="stroke:#181818;stroke-width:1;"/><line style="stroke:#181818;stroke-width:1;stroke-dasharray:2,2;" x1="28.3089" x2="346.3842" y1="149.4799" y2="149.4799"/><text fill="#000000" font-family="sans-serif" font-size="13" font-weight="bold" lengthAdjust="spacing" textLength="7.436" x="40.3089" y="143.6709">2</text><text fill="#000000" font-family="sans-serif" font-size="13" lengthAdjust="spacing" textLength="206.0892" x="51.7449" y="143.6709">loadFragment(new MainScreen());</text></g><g class="message" data-participant-1="service" data-participant-2="adapter"><polygon fill="#181818" points="718.3074,177.186,728.3074,181.186,718.3074,185.186,722.3074,181.186" style="stroke:#181818;stroke-width:1;"/><line style="stroke:#181818;stroke-width:1;" x1="347.3842" x2="724.3074" y1="181.186" y2="181.186"/><text fill="#000000" font-family="sans-serif" font-size="13" font-weight="bold" lengthAdjust="spacing" textLength="7.436" x="354.3842" y="175.377">3</text><text fill="#000000" font-family="sans-serif" font-size="13" lengthAdjust="spacing" textLength="213.2392" x="365.8202" y="175.377">new BookAdapter(book_data, this);</text></g><g class="message" data-participant-1="adapter" data-participant-2="adapter"><line style="stroke:#181818;stroke-width:1;stroke-dasharray:2,2;" x1="688.3074" x2="729.3074" y1="212.892" y2="212.892"/><line style="stroke:#181818;stroke-width:1;stroke-dasharray:2,2;" x1="688.3074" x2="688.3074" y1="212.892" y2="225.892"/><line style="stroke:#181818;stroke-width:1;stroke-dasharray:2,2;" x1="688.3074" x2="728.3074" y1="225.892" y2="225.892"/><polygon fill="#181818" points="718.3074,221.892,728.3074,225.892,718.3074,229.892,722.3074,225.892" style="stroke:#181818;stroke-width:1;"/><text fill="#000000" font-family="sans-serif" font-size="13" font-weight="bold" lengthAdjust="spacing" textLength="7.436" x="379.6562" y="207.083">4</text><text fill="#000000" font-family="sans-serif" font-size="13" lengthAdjust="spacing" textLength="332.2152" x="391.0922" y="207.083">onCreateViewHolder(ViewGroup parent, int viewType);</text></g><g class="message" data-participant-1="adapter" data-participant-2="adapter"><line style="stroke:#181818;stroke-width:1;stroke-dasharray:2,2;" x1="688.3074" x2="729.3074" y1="257.598" y2="257.598"/><line style="stroke:#181818;stroke-width:1;stroke-dasharray:2,2;" x1="688.3074" x2="688.3074" y1="257.598" y2="270.598"/><line style="stroke:#181818;stroke-width:1;stroke-dasharray:2,2;" x1="688.3074" x2="728.3074" y1="270.598" y2="270.598"/><polygon fill="#181818" points="718.3074,266.598,728.3074,270.598,718.3074,274.598,722.3074,270.598" style="stroke:#181818;stroke-width:1;"/><text fill="#000000" font-family="sans-serif" font-size="13" font-weight="bold" lengthAdjust="spacing" textLength="7.436" x="354.3842" y="251.789">5</text><text fill="#000000" font-family="sans-serif" font-size="13" lengthAdjust="spacing" textLength="357.4872" x="365.8202" y="251.789">onBindViewHolder(ReviewViewHolder holder, int position);</text></g><g class="message" data-participant-1="adapter" data-participant-2="service"><polygon fill="#181818" points="358.3842,298.304,348.3842,302.304,358.3842,306.304,354.3842,302.304" style="stroke:#181818;stroke-width:1;"/><line style="stroke:#181818;stroke-width:1;stroke-dasharray:2,2;" x1="352.3842" x2="729.3074" y1="302.304" y2="302.304"/><text fill="#000000" font-family="sans-serif" font-size="13" font-weight="bold" lengthAdjust="spacing" textLength="7.436" x="364.3842" y="296.495">6</text><text fill="#000000" font-family="sans-serif" font-size="13" lengthAdjust="spacing" textLength="284.6873" x="375.8202" y="296.495">wishlisted_carousel.setAdapter(book_adapter);</text></g><g class="message" data-participant-1="user" data-participant-2="service"><polygon fill="#181818" points="335.3842,330.01,345.3842,334.01,335.3842,338.01,339.3842,334.01" style="stroke:#181818;stroke-width:1;"/><line style="stroke:#181818;stroke-width:1;" x1="23.3089" x2="341.3842" y1="334.01" y2="334.01"/><text fill="#000000" font-family="sans-serif" font-size="13" font-weight="bold" lengthAdjust="spacing" textLength="7.436" x="30.3089" y="328.201">7</text><text fill="#000000" font-family="sans-serif" font-size="13" lengthAdjust="spacing" textLength="288.6392" x="41.7449" y="328.201">Click on any of the four lastest wishlisted books</text></g><g class="message" data-participant-1="service" data-participant-2="user"><polygon fill="#181818" points="34.3089,361.716,24.3089,365.716,34.3089,369.716,30.3089,365.716" style="stroke:#181818;stroke-width:1;"/><line style="stroke:#181818;stroke-width:1;stroke-dasharray:2,2;" x1="28.3089" x2="346.3842" y1="365.716" y2="365.716"/><text fill="#000000" font-family="sans-serif" font-size="13" font-weight="bold" lengthAdjust="spacing" textLength="7.436" x="40.3089" y="359.907">8</text><text fill="#000000" font-family="sans-serif" font-size="13" lengthAdjust="spacing" textLength="226.7722" x="51.7449" y="359.907">Send user to the specific book screen</text></g><!--SRC=[TP5BJm8n58Nt_HKtR8H4O3yQ4o5HDsu4tP9BUs5kwBIrjmFXtzjv8E1ZDMVQSxxxw4sPKf1YEWqMNQehEz6-cWfzrkGqZGtZDcAb5DR9kxfQKynQ9nzXy2uK1u02THOgO4oiEMGA38e5nJrhQg-bqpySZmP3wW7OQQKQ4emVJf42bYMrUF21d43AlnX2vxiVZyz6wz4yHTnMvDBGqG5UaTr2Ho8t78tkbEgT3RqlLq3Zctc_wtiPhhDU6Knucoknv5XlRMjznxoRHy947qo75szDJZRoEVewG9uojt0BdAVSvzFbCT3_e1axSu5veoPoFe2o_NIqu8KJUvTffs6kQ0UMqh8aCYkDkHSXEn5ALyFrvcOXltOzjwntkIT0TmI_QPUzyNK4YnagwQ80D33vunaMv4ptOCct00caUSEwJO2q3wBK5m00]--></g></svg>