<svg xmlns="http://www.w3.org/2000/svg" xmlns:xlink="http://www.w3.org/1999/xlink" contentStyleType="text/css" data-diagram-type="SEQUENCE" height="594px" preserveAspectRatio="none" style="width:595px;height:594px;background:#FFFFFF;" version="1.1" viewBox="0 0 595 594" width="595px" zoomAndPan="magnify"><defs/><g><rect fill="none" height="189.512" style="stroke:#000000;stroke-width:1.5;" width="578.2502" x="10" y="304.304"/><g><title>User</title><rect fill="#000000" fill-opacity="0.00000" height="426.7481" width="8" x="34.3089" y="84.0679"/><line style="stroke:#181818;stroke-width:0.5;stroke-dasharray:5,5;" x1="38" x2="38" y1="84.0679" y2="510.816"/></g><g><title>.Service</title><rect fill="#000000" fill-opacity="0.00000" height="426.7481" width="8" x="542.0223" y="84.0679"/><line style="stroke:#181818;stroke-width:0.5;stroke-dasharray:5,5;" x1="545.7944" x2="545.7944" y1="84.0679" y2="510.816"/></g><g class="participant participant-head" data-participant="user"><text fill="#000000" font-family="sans-serif" font-size="14" lengthAdjust="spacing" textLength="30.6179" x="20" y="79.9659">User</text><ellipse cx="38.3089" cy="13.5" fill="#E2E2F0" rx="8" ry="8" style="stroke:#181818;stroke-width:0.5;"/><path d="M38.3089,21.5 L38.3089,48.5 M25.3089,29.5 L51.3089,29.5 M38.3089,48.5 L25.3089,63.5 M38.3089,48.5 L51.3089,63.5" fill="none" style="stroke:#181818;stroke-width:0.5;"/></g><g class="participant participant-tail" data-participant="user"><text fill="#000000" font-family="sans-serif" font-size="14" lengthAdjust="spacing" textLength="30.6179" x="20" y="524.7819">User</text><ellipse cx="38.3089" cy="537.3839" fill="#E2E2F0" rx="8" ry="8" style="stroke:#181818;stroke-width:0.5;"/><path d="M38.3089,545.3839 L38.3089,572.3839 M25.3089,553.3839 L51.3089,553.3839 M38.3089,572.3839 L25.3089,587.3839 M38.3089,572.3839 L51.3089,587.3839" fill="none" style="stroke:#181818;stroke-width:0.5;"/></g><g class="participant participant-head" data-participant="service"><rect fill="#E2E2F0" height="33.0679" rx="2.5" ry="2.5" style="stroke:#181818;stroke-width:0.5;" width="64.4558" x="513.7944" y="50"/><text fill="#000000" font-family="sans-serif" font-size="14" lengthAdjust="spacing" textLength="50.4558" x="520.7944" y="71.9659">:Service</text></g><g class="participant participant-tail" data-participant="service"><rect fill="#E2E2F0" height="33.0679" rx="2.5" ry="2.5" style="stroke:#181818;stroke-width:0.5;" width="64.4558" x="513.7944" y="509.816"/><text fill="#000000" font-family="sans-serif" font-size="14" lengthAdjust="spacing" textLength="50.4558" x="520.7944" y="531.7819">:Service</text></g><g class="message" data-participant-1="user" data-participant-2="service"><polygon fill="#181818" points="534.0223,113.7739,544.0223,117.7739,534.0223,121.7739,538.0223,117.7739" style="stroke:#181818;stroke-width:1;"/><line style="stroke:#181818;stroke-width:1;" x1="38.3089" x2="540.0223" y1="117.7739" y2="117.7739"/><text fill="#000000" font-family="sans-serif" font-size="13" font-weight="bold" lengthAdjust="spacing" textLength="7.436" x="45.3089" y="111.9649">1</text><text fill="#000000" font-family="sans-serif" font-size="13" lengthAdjust="spacing" textLength="143.8711" x="56.7449" y="111.9649">The user opens the app</text></g><g class="message" data-participant-1="service" data-participant-2="user"><polygon fill="#181818" points="49.3089,145.4799,39.3089,149.4799,49.3089,153.4799,45.3089,149.4799" style="stroke:#181818;stroke-width:1;"/><line style="stroke:#181818;stroke-width:1;stroke-dasharray:2,2;" x1="43.3089" x2="545.0223" y1="149.4799" y2="149.4799"/><text fill="#000000" font-family="sans-serif" font-size="13" font-weight="bold" lengthAdjust="spacing" textLength="7.436" x="55.3089" y="143.6709">2</text><text fill="#000000" font-family="sans-serif" font-size="13" lengthAdjust="spacing" textLength="206.0892" x="66.7449" y="143.6709">loadFragment(new MainScreen());</text></g><g class="message" data-participant-1="user" data-participant-2="service"><polygon fill="#181818" points="534.0223,177.186,544.0223,181.186,534.0223,185.186,538.0223,181.186" style="stroke:#181818;stroke-width:1;"/><line style="stroke:#181818;stroke-width:1;" x1="38.3089" x2="540.0223" y1="181.186" y2="181.186"/><text fill="#000000" font-family="sans-serif" font-size="13" font-weight="bold" lengthAdjust="spacing" textLength="7.436" x="45.3089" y="175.377">3</text><text fill="#000000" font-family="sans-serif" font-size="13" lengthAdjust="spacing" textLength="178.2562" x="56.7449" y="175.377">Click on the magnifier button</text></g><g class="message" data-participant-1="service" data-participant-2="user"><polygon fill="#181818" points="49.3089,208.892,39.3089,212.892,49.3089,216.892,45.3089,212.892" style="stroke:#181818;stroke-width:1;"/><line style="stroke:#181818;stroke-width:1;stroke-dasharray:2,2;" x1="43.3089" x2="545.0223" y1="212.892" y2="212.892"/><text fill="#000000" font-family="sans-serif" font-size="13" font-weight="bold" lengthAdjust="spacing" textLength="7.436" x="55.3089" y="207.083">4</text><text fill="#000000" font-family="sans-serif" font-size="13" lengthAdjust="spacing" textLength="472.2773" x="66.7449" y="207.083">search_bar.setOnQueryTextListener(new SearchView.OnQueryTextListener());</text></g><g class="message" data-participant-1="user" data-participant-2="service"><polygon fill="#181818" points="534.0223,240.598,544.0223,244.598,534.0223,248.598,538.0223,244.598" style="stroke:#181818;stroke-width:1;"/><line style="stroke:#181818;stroke-width:1;" x1="38.3089" x2="540.0223" y1="244.598" y2="244.598"/><text fill="#000000" font-family="sans-serif" font-size="13" font-weight="bold" lengthAdjust="spacing" textLength="7.436" x="45.3089" y="238.789">5</text><text fill="#000000" font-family="sans-serif" font-size="13" lengthAdjust="spacing" textLength="133.0551" x="56.7449" y="238.789">Input the book's ISBN</text></g><g class="message" data-participant-1="service" data-participant-2="service"><line style="stroke:#181818;stroke-width:1;stroke-dasharray:2,2;" x1="504.0223" x2="545.0223" y1="276.304" y2="276.304"/><line style="stroke:#181818;stroke-width:1;stroke-dasharray:2,2;" x1="504.0223" x2="504.0223" y1="276.304" y2="289.304"/><line style="stroke:#181818;stroke-width:1;stroke-dasharray:2,2;" x1="504.0223" x2="544.0223" y1="289.304" y2="289.304"/><polygon fill="#181818" points="534.0223,285.304,544.0223,289.304,534.0223,293.304,538.0223,289.304" style="stroke:#181818;stroke-width:1;"/><text fill="#000000" font-family="sans-serif" font-size="13" font-weight="bold" lengthAdjust="spacing" textLength="7.436" x="318.065" y="270.495">6</text><text fill="#000000" font-family="sans-serif" font-size="13" lengthAdjust="spacing" textLength="209.5212" x="329.5011" y="270.495">onQueryTextSubmit(String query);</text></g><path d="M10,304.304 L72.303,304.304 L72.303,314.01 L62.303,324.01 L10,324.01 L10,304.304" fill="#EEEEEE" style="stroke:#000000;stroke-width:1.5;"/><rect fill="none" height="189.512" style="stroke:#000000;stroke-width:1.5;" width="578.2502" x="10" y="304.304"/><text fill="#000000" font-family="sans-serif" font-size="13" font-weight="bold" lengthAdjust="spacing" textLength="17.303" x="25" y="319.201">alt</text><text fill="#000000" font-family="sans-serif" font-size="11" font-weight="bold" lengthAdjust="spacing" textLength="91.5963" x="87.303" y="318.0629">[API returns 200]</text><g class="message" data-participant-1="service" data-participant-2="service"><line style="stroke:#181818;stroke-width:1;stroke-dasharray:2,2;" x1="504.0223" x2="545.0223" y1="347.716" y2="347.716"/><line style="stroke:#181818;stroke-width:1;stroke-dasharray:2,2;" x1="504.0223" x2="504.0223" y1="347.716" y2="360.716"/><line style="stroke:#181818;stroke-width:1;stroke-dasharray:2,2;" x1="504.0223" x2="544.0223" y1="360.716" y2="360.716"/><polygon fill="#181818" points="534.0223,356.716,544.0223,360.716,534.0223,364.716,538.0223,360.716" style="stroke:#181818;stroke-width:1;"/><text fill="#000000" font-family="sans-serif" font-size="13" font-weight="bold" lengthAdjust="spacing" textLength="7.436" x="46.625" y="341.907">7</text><text fill="#000000" font-family="sans-serif" font-size="13" lengthAdjust="spacing" textLength="480.9612" x="58.0611" y="341.907">onBookFound(BookResponse.Item item, String isbn, Bundle response_bundle);</text></g><g class="message" data-participant-1="service" data-participant-2="user"><polygon fill="#181818" points="49.3089,388.4221,39.3089,392.4221,49.3089,396.4221,45.3089,392.4221" style="stroke:#181818;stroke-width:1;"/><line style="stroke:#181818;stroke-width:1;stroke-dasharray:2,2;" x1="43.3089" x2="545.0223" y1="392.4221" y2="392.4221"/><text fill="#000000" font-family="sans-serif" font-size="13" font-weight="bold" lengthAdjust="spacing" textLength="7.436" x="55.3089" y="386.6131">8</text><text fill="#000000" font-family="sans-serif" font-size="13" lengthAdjust="spacing" textLength="323.3102" x="66.7449" y="386.6131">navigateToBookScreen(item, isbn, response_bundle);</text></g><line style="stroke:#000000;stroke-width:1;stroke-dasharray:2,2;" x1="10" x2="588.2502" y1="401.4221" y2="401.4221"/><text fill="#000000" font-family="sans-serif" font-size="11" font-weight="bold" lengthAdjust="spacing" textLength="91.5963" x="15" y="413.181">[API returns 204]</text><g class="message" data-participant-1="service" data-participant-2="service"><line style="stroke:#181818;stroke-width:1;stroke-dasharray:2,2;" x1="504.0223" x2="545.0223" y1="441.11" y2="441.11"/><line style="stroke:#181818;stroke-width:1;stroke-dasharray:2,2;" x1="504.0223" x2="504.0223" y1="441.11" y2="454.11"/><line style="stroke:#181818;stroke-width:1;stroke-dasharray:2,2;" x1="504.0223" x2="544.0223" y1="454.11" y2="454.11"/><polygon fill="#181818" points="534.0223,450.11,544.0223,454.11,534.0223,458.11,538.0223,454.11" style="stroke:#181818;stroke-width:1;"/><text fill="#000000" font-family="sans-serif" font-size="13" font-weight="bold" lengthAdjust="spacing" textLength="7.436" x="350.7731" y="435.301">9</text><text fill="#000000" font-family="sans-serif" font-size="13" lengthAdjust="spacing" textLength="176.8132" x="362.2091" y="435.301">onNoBookFound(String isbn)</text></g><g class="message" data-participant-1="service" data-participant-2="user"><polygon fill="#181818" points="49.3089,481.816,39.3089,485.816,49.3089,489.816,45.3089,485.816" style="stroke:#181818;stroke-width:1;"/><line style="stroke:#181818;stroke-width:1;stroke-dasharray:2,2;" x1="43.3089" x2="545.0223" y1="485.816" y2="485.816"/><text fill="#000000" font-family="sans-serif" font-size="13" font-weight="bold" lengthAdjust="spacing" textLength="14.872" x="55.3089" y="480.007">10</text><text fill="#000000" font-family="sans-serif" font-size="13" lengthAdjust="spacing" textLength="222.9502" x="74.181" y="480.007">navigateToManualBookScreen(isbn);</text></g><!--SRC=[VP5RJm8n48NVzrTCU04IRZ4-eJ4H4n8ImSkYhsHs6PU6tMbffw3_tkuk1XJmfPbfptpdj6skH8mRzlicHnPVvBrK5tr76q-SKdUfCBDOH15wqUoBX6oeKz4M6c-ER0FGWGz5PD2AIfK956WCOx9RbL9rxEewYaeTTEz-DeOmNr4r3DeGEv3GeZ6rxhRRFGXpZSknnQmWbXRJ3gQeE4uj4RVQxPipw8TSfMlGN44Bp5Xzg219l8Hxd75mX3PTBHAqFKVon2-UxDUSFkLHEI4cMzd6bUfTqQvtJd8-oeIDbof7elMwwM0IZsRH_lXt2ds0nZufbBHYiOeps9JR9HrpWVld2LWIRyERNGq6br2Zu3RMdfUjidebPpGxwas42b1XwS0Uhbp27HW5PKu1NEiMITK7pzF7Ojog38NckYJl_w56rgnJ2EME_WI_lXHyfW_HZoAs_qqoHVQO7-SfHu8nBxy1]--></g></svg>