<svg xmlns="http://www.w3.org/2000/svg" xmlns:xlink="http://www.w3.org/1999/xlink" contentStyleType="text/css" data-diagram-type="SEQUENCE" height="524px" preserveAspectRatio="none" style="width:579px;height:524px;background:#FFFFFF;" version="1.1" viewBox="0 0 579 524" width="579px" zoomAndPan="magnify"><defs/><g><g><title>User</title><rect fill="#000000" fill-opacity="0.00000" height="357.3541" width="8" x="19.3089" y="84.0679"/><line style="stroke:#181818;stroke-width:0.5;stroke-dasharray:5,5;" x1="23" x2="23" y1="84.0679" y2="441.4221"/></g><g><title>.Service</title><rect fill="#000000" fill-opacity="0.00000" height="357.3541" width="8" x="263.0051" y="84.0679"/><line style="stroke:#181818;stroke-width:0.5;stroke-dasharray:5,5;" x1="266.7772" x2="266.7772" y1="84.0679" y2="441.4221"/></g><g><title>.Repo</title><rect fill="#000000" fill-opacity="0.00000" height="357.3541" width="8" x="543.7384" y="84.0679"/><line style="stroke:#181818;stroke-width:0.5;stroke-dasharray:5,5;" x1="547.0204" x2="547.0204" y1="84.0679" y2="441.4221"/></g><g class="participant participant-head" data-participant="user"><text fill="#000000" font-family="sans-serif" font-size="14" lengthAdjust="spacing" textLength="30.6179" x="5" y="79.9659">User</text><ellipse cx="23.3089" cy="13.5" fill="#E2E2F0" rx="8" ry="8" style="stroke:#181818;stroke-width:0.5;"/><path d="M23.3089,21.5 L23.3089,48.5 M10.3089,29.5 L36.3089,29.5 M23.3089,48.5 L10.3089,63.5 M23.3089,48.5 L36.3089,63.5" fill="none" style="stroke:#181818;stroke-width:0.5;"/></g><g class="participant participant-tail" data-participant="user"><text fill="#000000" font-family="sans-serif" font-size="14" lengthAdjust="spacing" textLength="30.6179" x="5" y="455.388">User</text><ellipse cx="23.3089" cy="467.99" fill="#E2E2F0" rx="8" ry="8" style="stroke:#181818;stroke-width:0.5;"/><path d="M23.3089,475.99 L23.3089,502.99 M10.3089,483.99 L36.3089,483.99 M23.3089,502.99 L10.3089,517.99 M23.3089,502.99 L36.3089,517.99" fill="none" style="stroke:#181818;stroke-width:0.5;"/></g><g class="participant participant-head" data-participant="service"><rect fill="#E2E2F0" height="33.0679" rx="2.5" ry="2.5" style="stroke:#181818;stroke-width:0.5;" width="64.4558" x="234.7772" y="50"/><text fill="#000000" font-family="sans-serif" font-size="14" lengthAdjust="spacing" textLength="50.4558" x="241.7772" y="71.9659">:Service</text></g><g class="participant participant-tail" data-participant="service"><rect fill="#E2E2F0" height="33.0679" rx="2.5" ry="2.5" style="stroke:#181818;stroke-width:0.5;" width="64.4558" x="234.7772" y="440.4221"/><text fill="#000000" font-family="sans-serif" font-size="14" lengthAdjust="spacing" textLength="50.4558" x="241.7772" y="462.388">:Service</text></g><g class="participant participant-head" data-participant="repo"><rect fill="#E2E2F0" height="33.0679" rx="2.5" ry="2.5" style="stroke:#181818;stroke-width:0.5;" width="51.4359" x="522.0204" y="50"/><text fill="#000000" font-family="sans-serif" font-size="14" lengthAdjust="spacing" textLength="37.4359" x="529.0204" y="71.9659">:Repo</text></g><g class="participant participant-tail" data-participant="repo"><rect fill="#E2E2F0" height="33.0679" rx="2.5" ry="2.5" style="stroke:#181818;stroke-width:0.5;" width="51.4359" x="522.0204" y="440.4221"/><text fill="#000000" font-family="sans-serif" font-size="14" lengthAdjust="spacing" textLength="37.4359" x="529.0204" y="462.388">:Repo</text></g><g class="message" data-participant-1="user" data-participant-2="service"><polygon fill="#181818" points="255.0051,113.7739,265.0051,117.7739,255.0051,121.7739,259.0051,117.7739" style="stroke:#181818;stroke-width:1;"/><line style="stroke:#181818;stroke-width:1;" x1="23.3089" x2="261.0051" y1="117.7739" y2="117.7739"/><text fill="#000000" font-family="sans-serif" font-size="13" font-weight="bold" lengthAdjust="spacing" textLength="7.436" x="30.3089" y="111.9649">1</text><text fill="#000000" font-family="sans-serif" font-size="13" lengthAdjust="spacing" textLength="143.8711" x="41.7449" y="111.9649">The user opens the app</text></g><g class="message" data-participant-1="service" data-participant-2="user"><polygon fill="#181818" points="34.3089,145.4799,24.3089,149.4799,34.3089,153.4799,30.3089,149.4799" style="stroke:#181818;stroke-width:1;"/><line style="stroke:#181818;stroke-width:1;stroke-dasharray:2,2;" x1="28.3089" x2="266.0051" y1="149.4799" y2="149.4799"/><text fill="#000000" font-family="sans-serif" font-size="13" font-weight="bold" lengthAdjust="spacing" textLength="7.436" x="40.3089" y="143.6709">2</text><text fill="#000000" font-family="sans-serif" font-size="13" lengthAdjust="spacing" textLength="206.0892" x="51.7449" y="143.6709">loadFragment(new MainScreen());</text></g><g class="message" data-participant-1="service" data-participant-2="repo"><polygon fill="#181818" points="535.7384,177.186,545.7384,181.186,535.7384,185.186,539.7384,181.186" style="stroke:#181818;stroke-width:1;"/><line style="stroke:#181818;stroke-width:1;" x1="267.0051" x2="541.7384" y1="181.186" y2="181.186"/><text fill="#000000" font-family="sans-serif" font-size="13" font-weight="bold" lengthAdjust="spacing" textLength="7.436" x="274.0051" y="175.377">3</text><text fill="#000000" font-family="sans-serif" font-size="13" lengthAdjust="spacing" textLength="245.2972" x="285.4411" y="175.377">Gets the information from the container</text></g><g class="message" data-participant-1="repo" data-participant-2="repo"><line style="stroke:#181818;stroke-width:1;stroke-dasharray:2,2;" x1="505.7384" x2="546.7384" y1="212.892" y2="212.892"/><line style="stroke:#181818;stroke-width:1;stroke-dasharray:2,2;" x1="505.7384" x2="505.7384" y1="212.892" y2="225.892"/><line style="stroke:#181818;stroke-width:1;stroke-dasharray:2,2;" x1="505.7384" x2="545.7384" y1="225.892" y2="225.892"/><polygon fill="#181818" points="535.7384,221.892,545.7384,225.892,535.7384,229.892,539.7384,225.892" style="stroke:#181818;stroke-width:1;"/><text fill="#000000" font-family="sans-serif" font-size="13" font-weight="bold" lengthAdjust="spacing" textLength="7.436" x="356.1162" y="207.083">4</text><text fill="#000000" font-family="sans-serif" font-size="13" lengthAdjust="spacing" textLength="173.1862" x="367.5522" y="207.083">getAverageRatingThisYear();</text></g><g class="message" data-participant-1="repo" data-participant-2="repo"><line style="stroke:#181818;stroke-width:1;stroke-dasharray:2,2;" x1="505.7384" x2="546.7384" y1="257.598" y2="257.598"/><line style="stroke:#181818;stroke-width:1;stroke-dasharray:2,2;" x1="505.7384" x2="505.7384" y1="257.598" y2="270.598"/><line style="stroke:#181818;stroke-width:1;stroke-dasharray:2,2;" x1="505.7384" x2="545.7384" y1="270.598" y2="270.598"/><polygon fill="#181818" points="535.7384,266.598,545.7384,270.598,535.7384,274.598,539.7384,270.598" style="stroke:#181818;stroke-width:1;"/><text fill="#000000" font-family="sans-serif" font-size="13" font-weight="bold" lengthAdjust="spacing" textLength="7.436" x="366.2172" y="251.789">5</text><text fill="#000000" font-family="sans-serif" font-size="13" lengthAdjust="spacing" textLength="163.0851" x="377.6532" y="251.789">getTotalReviewsThisYear();</text></g><g class="message" data-participant-1="repo" data-participant-2="repo"><line style="stroke:#181818;stroke-width:1;stroke-dasharray:2,2;" x1="505.7384" x2="546.7384" y1="302.304" y2="302.304"/><line style="stroke:#181818;stroke-width:1;stroke-dasharray:2,2;" x1="505.7384" x2="505.7384" y1="302.304" y2="315.304"/><line style="stroke:#181818;stroke-width:1;stroke-dasharray:2,2;" x1="505.7384" x2="545.7384" y1="315.304" y2="315.304"/><polygon fill="#181818" points="535.7384,311.304,545.7384,315.304,535.7384,319.304,539.7384,315.304" style="stroke:#181818;stroke-width:1;"/><text fill="#000000" font-family="sans-serif" font-size="13" font-weight="bold" lengthAdjust="spacing" textLength="7.436" x="378.6842" y="296.495">6</text><text fill="#000000" font-family="sans-serif" font-size="13" lengthAdjust="spacing" textLength="150.6182" x="390.1202" y="296.495">getBestMonthThisYear();</text></g><g class="message" data-participant-1="repo" data-participant-2="repo"><line style="stroke:#181818;stroke-width:1;stroke-dasharray:2,2;" x1="505.7384" x2="546.7384" y1="347.01" y2="347.01"/><line style="stroke:#181818;stroke-width:1;stroke-dasharray:2,2;" x1="505.7384" x2="505.7384" y1="347.01" y2="360.01"/><line style="stroke:#181818;stroke-width:1;stroke-dasharray:2,2;" x1="505.7384" x2="545.7384" y1="360.01" y2="360.01"/><polygon fill="#181818" points="535.7384,356.01,545.7384,360.01,535.7384,364.01,539.7384,360.01" style="stroke:#181818;stroke-width:1;"/><text fill="#000000" font-family="sans-serif" font-size="13" font-weight="bold" lengthAdjust="spacing" textLength="7.436" x="344.7152" y="341.201">7</text><text fill="#000000" font-family="sans-serif" font-size="13" lengthAdjust="spacing" textLength="184.5872" x="356.1512" y="341.201">getMostUsedRatingThisYear();</text></g><g class="message" data-participant-1="repo" data-participant-2="service"><polygon fill="#181818" points="278.0051,387.716,268.0051,391.716,278.0051,395.716,274.0051,391.716" style="stroke:#181818;stroke-width:1;"/><line style="stroke:#181818;stroke-width:1;stroke-dasharray:2,2;" x1="272.0051" x2="546.7384" y1="391.716" y2="391.716"/><text fill="#000000" font-family="sans-serif" font-size="13" font-weight="bold" lengthAdjust="spacing" textLength="7.436" x="284.0051" y="385.907">8</text><text fill="#000000" font-family="sans-serif" font-size="13" lengthAdjust="spacing" textLength="215.0202" x="295.4411" y="385.907">Send the information to the service</text></g><g class="message" data-participant-1="service" data-participant-2="user"><polygon fill="#181818" points="34.3089,419.4221,24.3089,423.4221,34.3089,427.4221,30.3089,423.4221" style="stroke:#181818;stroke-width:1;"/><line style="stroke:#181818;stroke-width:1;stroke-dasharray:2,2;" x1="28.3089" x2="266.0051" y1="423.4221" y2="423.4221"/><text fill="#000000" font-family="sans-serif" font-size="13" font-weight="bold" lengthAdjust="spacing" textLength="7.436" x="40.3089" y="417.6131">9</text><text fill="#000000" font-family="sans-serif" font-size="13" lengthAdjust="spacing" textLength="208.2602" x="51.7449" y="417.6131">Show the user this year's statistics</text></g><!--SRC=[VP6nRiCm34HtVuMG9SdWPdUB0ktGJbbYT-Z8oemjm29LYOxHloyjDmXG0zbEukCTI6vxaP2gmo4CG3BwuS6oFoJy7f4ibgs3Be8l2XY5QVHV65LRuMWs7mdZna0oeueYG1HdNL0NiwbgZ1TdCPVJelyH9moSor55KSmUfdo-mfLfUip6XWDICg9F267Xdiho1WuCxLk4pYF9Zd0oHt1KsuX8k_t-iVW3P_CvgZBlA8kVepD73-AOp3copv-MITH09vhf7BMqTIWl5zGWF6aBTKtlqYT2t6d66crOO3ZXnU6KxfElcEIeeVrzxCX9TEFjElmwu0slaThLXCBvwtgDzIBhdgUCv99eWldHYArUKDGYwV7IBm00]--></g></svg>